<?xml version="1.0" encoding="utf-8"?>
<!-- Generator: Adobe Illustrator 24.0.0, SVG Export Plug-In . SVG Version: 6.00 Build 0)  -->
<svg version="1.1" id="Layer_1" xmlns="http://www.w3.org/2000/svg" xmlns:xlink="http://www.w3.org/1999/xlink" x="0px" y="0px"
	 viewBox="0 0 87.87 76.54" style="enable-background:new 0 0 87.87 76.54;" xml:space="preserve">
<style type="text/css">
	.st0{fill:#802CCC;}
	.st1{fill:#FFFFFF;}
</style>
<g>
	<polygon class="st0" points="131.15,69.5 133.5,71.22 131.15,72.94 128.79,71.22 	"/>
	<polygon class="st0" points="139.43,69.38 141.96,71.22 139.43,73.07 136.91,71.22 	"/>
	<path class="st0" d="M97.38,65.91l1.17,10.63h73.56l1.16-10.63H97.38z M139.43,75.55l-4.23-3.08l-4.05,2.96l-5.77-4.21l5.77-4.21
		l4.05,2.96l4.23-3.09l5.94,4.33L139.43,75.55z"/>
	<polygon class="st0" points="150.17,32.05 131.88,52.24 119.17,35.48 135.33,0 	"/>
	<polygon class="st0" points="130.01,54.31 122.46,62.64 97,62.64 91.44,11.44 	"/>
	<polygon class="st0" points="173.65,62.64 126.74,62.64 179.31,11.45 	"/>
</g>
<g>
	<polygon class="st1" points="39.71,69.5 42.06,71.22 39.71,72.94 37.35,71.22 	"/>
	<polygon class="st1" points="47.99,69.38 50.52,71.22 47.99,73.07 45.47,71.22 	"/>
	<path class="st1" d="M5.94,65.91l1.17,10.63h73.56l1.16-10.63H5.94z M47.99,75.55l-4.23-3.08l-4.05,2.96l-5.77-4.21l5.77-4.21
		l4.05,2.96l4.23-3.09l5.94,4.33L47.99,75.55z"/>
	<polygon class="st1" points="58.73,32.05 40.44,52.24 27.73,35.48 43.89,0 	"/>
	<polygon class="st1" points="38.57,54.31 31.02,62.64 5.56,62.64 0,11.44 	"/>
	<polygon class="st1" points="82.21,62.64 35.3,62.64 87.87,11.45 	"/>
</g>
</svg>
