<?xml version="1.0" encoding="utf-8"?>
<!-- Generator: Adobe Illustrator 24.0.0, SVG Export Plug-In . SVG Version: 6.00 Build 0)  -->
<svg version="1.1" id="Layer_1" xmlns="http://www.w3.org/2000/svg" xmlns:xlink="http://www.w3.org/1999/xlink" x="0px" y="0px"
	 viewBox="0 0 374.17 77.95" style="enable-background:new 0 0 374.17 77.95;" xml:space="preserve">
<style type="text/css">
	.st0{fill:#802CCC;}
	.st1{fill:#FFFFFF;}
</style>
<g>
	<g>
		<polygon class="st1" points="40.71,70.21 43.06,71.93 40.71,73.65 38.35,71.93 		"/>
		<polygon class="st1" points="48.99,70.08 51.52,71.93 48.99,73.77 46.47,71.93 		"/>
		<path class="st1" d="M6.94,66.61l1.17,10.63h73.56l1.16-10.63H6.94z M48.99,76.25l-4.23-3.08l-4.05,2.96l-5.77-4.21l5.77-4.21
			l4.05,2.96l4.23-3.09l5.94,4.33L48.99,76.25z"/>
		<polygon class="st1" points="59.73,32.75 41.44,52.95 28.73,36.18 44.89,0.71 		"/>
		<polygon class="st1" points="39.57,55.02 32.02,63.35 6.56,63.35 1,12.14 		"/>
		<polygon class="st1" points="83.21,63.35 36.3,63.35 88.87,12.16 		"/>
	</g>
	<g>
		<path class="st1" d="M119.21,0h-9.85v46.95c0,1.67,0.88,2.5,2.64,2.5h9.85V2.5C121.85,0.83,120.97,0,119.21,0z"/>
		<path class="st1" d="M163.31,0h-8.71v28.54c-0.86-2.19-1.81-4.46-2.85-6.81c-1.05-2.36-2.09-4.67-3.14-6.96
			c-1.05-2.28-2.08-4.47-3.1-6.57c-1.02-2.09-1.94-3.97-2.75-5.64c-0.33-0.67-0.76-1.26-1.28-1.78C140.95,0.26,140.33,0,139.62,0
			h-9.35v46.95c0,1.67,0.88,2.5,2.64,2.5h8.71V19.48c0.9,1.71,1.84,3.66,2.82,5.85c0.97,2.19,1.97,4.47,3,6.85
			c1.02,2.38,2.03,4.82,3.03,7.31s1.97,4.96,2.93,7.39c0.24,0.67,0.58,1.26,1.04,1.78c0.45,0.52,1.03,0.79,1.75,0.79h9.78V2.5
			C165.95,0.83,165.07,0,163.31,0z"/>
		<path class="st1" d="M201.55,0h-26.4v46.95c0,1.67,0.88,2.5,2.64,2.5h9.85V29.47h14.48v-7.35c0-1.66-0.88-2.5-2.64-2.5h-11.84
			V9.85h16.55V2.5C204.19,0.83,203.3,0,201.55,0z"/>
		<path class="st1" d="M222.78,0h-9.85v46.95c0,1.67,0.88,2.5,2.64,2.5h9.85V2.5C225.42,0.83,224.54,0,222.78,0z"/>
		<path class="st1" d="M267.16,0h-8.71v28.54c-0.86-2.19-1.81-4.46-2.85-6.81c-1.05-2.36-2.09-4.67-3.14-6.96
			c-1.05-2.28-2.08-4.47-3.1-6.57c-1.02-2.09-1.94-3.97-2.75-5.64c-0.33-0.67-0.76-1.26-1.29-1.78C244.8,0.26,244.18,0,243.47,0
			h-9.35v46.95c0,1.67,0.88,2.5,2.64,2.5h8.71V19.48c0.9,1.71,1.84,3.66,2.82,5.85c0.97,2.19,1.97,4.47,3,6.85
			c1.02,2.38,2.03,4.82,3.03,7.31c1,2.5,1.97,4.96,2.93,7.39c0.24,0.67,0.58,1.26,1.04,1.78c0.45,0.52,1.04,0.79,1.75,0.79h9.78V2.5
			C269.8,0.83,268.92,0,267.16,0z"/>
		<path class="st1" d="M288.34,0h-9.85v46.95c0,1.67,0.88,2.5,2.64,2.5h9.85V2.5C290.99,0.83,290.1,0,288.34,0z"/>
		<path class="st1" d="M332.72,0h-33.04v7.71c0,1.67,0.88,2.5,2.64,2.5h8.99v36.75c0,1.67,0.88,2.5,2.64,2.5h9.85V10.2h11.56V2.5
			C335.36,0.83,334.48,0,332.72,0z"/>
		<path class="st1" d="M371.53,39.6h-15.34V29.11h15.2v-7.35c0-1.66-0.88-2.5-2.64-2.5h-12.56V9.85h17.27V2.5
			c0-1.67-0.88-2.5-2.64-2.5h-26.76v46.95c0,1.67,0.88,2.5,2.64,2.5h27.47V42.1C374.17,40.43,373.29,39.6,371.53,39.6z"/>
	</g>
	<g>
		<path class="st1" d="M130.95,65.72h-10.44v3.44h6.7c-0.14,0.66-0.36,1.27-0.66,1.82c-0.3,0.56-0.64,1.02-1.04,1.38
			c-1.07,0.99-2.39,1.56-3.97,1.71v3.85c1.3-0.08,2.5-0.35,3.58-0.79c1.35-0.55,2.5-1.34,3.45-2.38c0.88-0.92,1.53-1.98,1.95-3.2
			c0.43-1.21,0.64-2.53,0.64-3.95C131.16,66.91,131.09,66.28,130.95,65.72z M114.39,70.61c-0.66-1.13-0.99-2.41-0.99-3.84
			c0-1.44,0.33-2.72,0.97-3.84c0.65-1.13,1.51-2,2.6-2.61c1.09-0.6,2.29-0.91,3.6-0.91c1.15,0,2.16,0.19,3.02,0.57
			c0.87,0.38,1.65,0.95,2.37,1.7l2.76-2.72c-0.99-1.07-2.17-1.9-3.55-2.49c-1.38-0.59-2.9-0.89-4.57-0.89
			c-2.04,0-3.92,0.49-5.63,1.45c-1.72,0.97-3.08,2.31-4.09,4.01c-1.01,1.71-1.52,3.62-1.52,5.73c0,2.11,0.51,4.02,1.52,5.72
			c1.01,1.71,2.37,3.04,4.09,4.01c1.25,0.71,2.59,1.16,4.02,1.34v-3.9c-0.69-0.14-1.35-0.38-1.97-0.73
			C115.92,72.6,115.04,71.74,114.39,70.61z"/>
		<path class="st1" d="M177.38,56.06h4.02v17.58h9.01v3.83h-13.03V56.06z"/>
		<path class="st1" d="M238.16,76.47c-1.7-0.99-3.03-2.34-4-4.05c-0.97-1.71-1.46-3.6-1.46-5.65c0-2.05,0.49-3.94,1.46-5.65
			c0.97-1.71,2.3-3.06,4-4.05c1.7-0.99,3.58-1.48,5.67-1.48c2.08,0,3.97,0.49,5.67,1.48c1.7,0.99,3.03,2.34,4,4.05
			c0.97,1.71,1.46,3.6,1.46,5.65c0,2.05-0.49,3.94-1.46,5.65c-0.97,1.71-2.31,3.06-4,4.05c-1.7,0.99-3.58,1.48-5.67,1.48
			C241.75,77.95,239.86,77.46,238.16,76.47z M247.43,73.2c1.09-0.62,1.95-1.49,2.57-2.6c0.62-1.12,0.94-2.39,0.94-3.83
			s-0.31-2.71-0.94-3.83c-0.62-1.12-1.48-1.98-2.57-2.6c-1.09-0.62-2.29-0.93-3.6-0.93s-2.5,0.31-3.58,0.93
			c-1.08,0.62-1.93,1.49-2.56,2.6c-0.62,1.12-0.94,2.39-0.94,3.83s0.31,2.71,0.94,3.83s1.48,1.98,2.56,2.6
			c1.08,0.62,2.28,0.93,3.58,0.93S246.34,73.81,247.43,73.2z"/>
		<path class="st1" d="M309.51,69.01l0.03-0.21c1.3-0.48,2.39-1.25,3.25-2.32c0.87-1.06,1.3-2.28,1.3-3.66c0-1.29-0.3-2.46-0.9-3.48
			c-0.59-1.03-1.43-1.83-2.51-2.41s-2.31-0.87-3.7-0.87h-1.2v3.74h1.23c0.93,0,1.67,0.29,2.21,0.87c0.55,0.58,0.82,1.27,0.82,2.09
			c0,0.86-0.29,1.57-0.86,2.12c-0.58,0.56-1.32,0.84-2.23,0.84h-3.72v-9.66h-4.02v21.41h4.02v-8.04h1.87l5.51,8.04h4.61v-0.24
			L309.51,69.01z"/>
		<path class="st1" d="M363.11,67.51l-7.17-11.45h4.79l4.25,7.09h0.24l4.1-7.09h4.85l-7.05,11.45v9.96h-4.02V67.51z"/>
	</g>
</g>
</svg>
